<svg width="111" height="17" viewBox="0 0 111 17" fill="none" xmlns="http://www.w3.org/2000/svg">
<path d="M0.805 10.595H7.084C7.19133 10.917 7.50567 11.193 8.027 11.423C8.54833 11.6377 9.246 11.8063 10.12 11.929C11.0093 12.0363 12.0367 12.09 13.202 12.09C14.352 12.09 15.2567 12.0593 15.916 11.998C16.5907 11.9213 17.066 11.7987 17.342 11.63C17.618 11.446 17.756 11.2007 17.756 10.894C17.756 10.6027 17.5337 10.3803 17.089 10.227C16.6443 10.0583 15.8547 9.94333 14.72 9.882C13.5853 9.82067 11.9907 9.79 9.936 9.79C8.40267 9.79 7.07633 9.721 5.957 9.583C4.853 9.42967 3.94067 9.19967 3.22 8.893C2.51467 8.571 1.99333 8.17233 1.656 7.697C1.31867 7.20633 1.15 6.62367 1.15 5.949C1.15 4.78367 1.541 3.82533 2.323 3.074C3.12033 2.30733 4.31633 1.74 5.911 1.372C7.521 0.988666 9.52967 0.797 11.937 0.797C15.4637 0.797 18.1547 1.31067 20.01 2.338C21.8807 3.35 22.816 4.81433 22.816 6.731H16.859C16.7823 6.225 16.307 5.84167 15.433 5.581C14.559 5.305 13.317 5.167 11.707 5.167C10.1123 5.167 8.924 5.259 8.142 5.443C7.37533 5.627 6.992 5.94133 6.992 6.386C6.992 6.616 7.09933 6.8 7.314 6.938C7.52867 7.076 7.89667 7.191 8.418 7.283C8.95467 7.35967 9.706 7.41333 10.672 7.444C11.638 7.47467 12.8647 7.49 14.352 7.49C15.9927 7.49 17.388 7.57433 18.538 7.743C19.688 7.89633 20.6157 8.134 21.321 8.456C22.0417 8.778 22.563 9.192 22.885 9.698C23.207 10.1887 23.368 10.7713 23.368 11.446C23.368 12.6113 23 13.562 22.264 14.298C21.528 15.034 20.3627 15.5783 18.768 15.931C17.1733 16.2837 15.088 16.46 12.512 16.46C11.0553 16.46 9.71367 16.3757 8.487 16.207C7.27567 16.0383 6.19467 15.793 5.244 15.471C4.29333 15.1337 3.48833 14.7273 2.829 14.252C2.16967 13.7613 1.66367 13.217 1.311 12.619C0.973667 12.0057 0.805 11.331 0.805 10.595ZM28.966 13.769V10.319H44.698V13.769H28.966ZM23.814 16L33.681 1.28H40.075L50.034 16H43.709L35.176 2.821H38.603L30.139 16H23.814ZM56.7996 6.363H72.9916V10.733H56.7996V6.363ZM72.3476 1.28H78.0976V16H72.3476V1.28ZM51.8776 1.28H57.6276V16H51.8776V1.28ZM81.6689 1.28H87.4189V16H81.6689V1.28ZM96.7321 1.28V11.63H110.141V16H90.9821V1.28H96.7321Z" fill="#0D0D0D"/>
<path d="M0.805 10.595H7.084C7.19133 10.917 7.50567 11.193 8.027 11.423C8.54833 11.6377 9.246 11.8063 10.12 11.929C11.0093 12.0363 12.0367 12.09 13.202 12.09C14.352 12.09 15.2567 12.0593 15.916 11.998C16.5907 11.9213 17.066 11.7987 17.342 11.63C17.618 11.446 17.756 11.2007 17.756 10.894C17.756 10.6027 17.5337 10.3803 17.089 10.227C16.6443 10.0583 15.8547 9.94333 14.72 9.882C13.5853 9.82067 11.9907 9.79 9.936 9.79C8.40267 9.79 7.07633 9.721 5.957 9.583C4.853 9.42967 3.94067 9.19967 3.22 8.893C2.51467 8.571 1.99333 8.17233 1.656 7.697C1.31867 7.20633 1.15 6.62367 1.15 5.949C1.15 4.78367 1.541 3.82533 2.323 3.074C3.12033 2.30733 4.31633 1.74 5.911 1.372C7.521 0.988666 9.52967 0.797 11.937 0.797C15.4637 0.797 18.1547 1.31067 20.01 2.338C21.8807 3.35 22.816 4.81433 22.816 6.731H16.859C16.7823 6.225 16.307 5.84167 15.433 5.581C14.559 5.305 13.317 5.167 11.707 5.167C10.1123 5.167 8.924 5.259 8.142 5.443C7.37533 5.627 6.992 5.94133 6.992 6.386C6.992 6.616 7.09933 6.8 7.314 6.938C7.52867 7.076 7.89667 7.191 8.418 7.283C8.95467 7.35967 9.706 7.41333 10.672 7.444C11.638 7.47467 12.8647 7.49 14.352 7.49C15.9927 7.49 17.388 7.57433 18.538 7.743C19.688 7.89633 20.6157 8.134 21.321 8.456C22.0417 8.778 22.563 9.192 22.885 9.698C23.207 10.1887 23.368 10.7713 23.368 11.446C23.368 12.6113 23 13.562 22.264 14.298C21.528 15.034 20.3627 15.5783 18.768 15.931C17.1733 16.2837 15.088 16.46 12.512 16.46C11.0553 16.46 9.71367 16.3757 8.487 16.207C7.27567 16.0383 6.19467 15.793 5.244 15.471C4.29333 15.1337 3.48833 14.7273 2.829 14.252C2.16967 13.7613 1.66367 13.217 1.311 12.619C0.973667 12.0057 0.805 11.331 0.805 10.595ZM28.966 13.769V10.319H44.698V13.769H28.966ZM23.814 16L33.681 1.28H40.075L50.034 16H43.709L35.176 2.821H38.603L30.139 16H23.814ZM56.7996 6.363H72.9916V10.733H56.7996V6.363ZM72.3476 1.28H78.0976V16H72.3476V1.28ZM51.8776 1.28H57.6276V16H51.8776V1.28ZM81.6689 1.28H87.4189V16H81.6689V1.28ZM96.7321 1.28V11.63H110.141V16H90.9821V1.28H96.7321Z" fill="black" fill-opacity="0.2"/>
</svg>
